<?xml version="1.0" standalone="no"?>
<!DOCTYPE svg PUBLIC "-//W3C//DTD SVG 20010904//EN"
 "http://www.w3.org/TR/2001/REC-SVG-20010904/DTD/svg10.dtd">
<svg version="1.0" xmlns="http://www.w3.org/2000/svg"
 width="78.000000pt" height="78.000000pt" viewBox="0 0 78.000000 78.000000"
 preserveAspectRatio="xMidYMid meet">
<metadata>
Created by potrace 1.14, written by Peter Selinger 2001-2017
</metadata>
<g transform="translate(0.000000,78.000000) scale(0.100000,-0.100000)"
fill="#000000" stroke="none">
<path d="M292 734 c-215 -57 -336 -277 -272 -496 14 -49 81 -147 123 -180 l34
-26 64 31 c56 28 73 32 149 32 73 0 93 -4 141 -27 31 -16 63 -28 72 -28 25 0
103 86 132 144 74 151 50 317 -63 438 -100 107 -243 149 -380 112z m256 -91
l44 -25 -21 -22 c-12 -12 -21 -30 -21 -39 0 -23 33 -22 55 3 10 11 21 20 24
20 12 0 70 -105 77 -138 6 -31 5 -32 -27 -32 -74 0 -81 -47 -8 -52 32 -2 43
-7 45 -21 4 -26 -22 -106 -47 -146 l-20 -34 -37 35 c-61 59 -89 22 -30 -39 17
-18 29 -36 25 -39 -3 -4 -32 4 -64 17 -83 34 -223 34 -306 0 -32 -13 -61 -21
-64 -17 -4 3 8 21 25 39 60 61 35 97 -28 41 -22 -20 -42 -35 -43 -33 -34 47
-56 107 -61 163 l-4 36 44 0 c32 0 46 5 51 16 8 21 -13 34 -54 34 -41 0 -42
16 -8 85 42 86 60 101 83 65 15 -25 52 -27 52 -3 0 9 -10 27 -21 39 l-21 23
32 19 c42 26 115 46 136 38 10 -4 14 -13 11 -26 -3 -13 1 -24 14 -31 21 -11
22 -9 33 42 6 26 7 27 48 17 24 -5 63 -21 86 -35z"/>
<path d="M485 431 c-16 -4 -49 -6 -72 -4 -52 5 -78 -8 -91 -46 -12 -35 3 -70
37 -87 30 -15 63 -4 100 34 14 15 48 42 74 59 26 18 47 37 47 43 0 11 -48 11
-95 1z m-72 -63 c14 -22 -7 -48 -33 -41 -24 6 -34 32 -19 50 15 17 38 13 52
-9z"/>
</g>
</svg>
